PathFileType	4	(X/Y/Z)	C:\Users\Willi\Documents\Github\OpenSimMatlabBasic\ExampleData\Trials\dynamic06\marker_experimental.trc
DataRate	CameraRate	NumFrames	NumMarkers	Units	OrigDataRate	OrigDataStartFrame	OrigNumFrames
150.000000	150.000000	2	179	mm	150.000000	206	330
Frame#	Time	LFHD			LBHD			RFHD			RBHD			C7			T10			CLAV			STRN			RBAK			LSHO			LUPA			LELB			LFRA			LWRB			LWRA			LFIN			RSHO			RUPA			RELB			RFRA			RWRB			RFIN			SACR			LASI			RASI			LT1			LT2			LT3			LS1			LS2			LS3			LHEE			LTOE			RT1			RT2			RT3			RS1			RS2			RS3			RHEE			RTOE			SACO			SACA			SACL			SACP			RWRA			LM5D			RM5D			LKNE			RKNE			LANK			RANK			LKJC			RKJC			LAJC			RAJC			LTHI			RTHI			LTIB			RTIB			P_ForcePlate1			P_ForcePlate2			P_ForcePlate3			funktRKJC			funktLKJC			funktRHIP			funktLHIP			LHJC			RHJC			LKNEshank			RKNEshank			LKJCshank			RKJCshank			LHF			COP_FP1			VECTIP_FP1			RawCentreFP1			COP_FP2			VECTIP_FP2			RawCentreFP2			COP_FP3			VECTIP_FP3			RawCentreFP3			LPelvisAngles			RPelvisAngles			LFootProgressAngles			RFootProgressAngles			LHipAngles			RHipAngles			LKneeAngles			RKneeAngles			LAnkleAngles			RAnkleAngles			LFFootAngles			RFFootAngles			LAbsAnkleAngle			RAbsAnkleAngle			RNeckAngles			LNeckAngles			RSpineAngles			LSpineAngles			LShoulderAngles			LElbowAngles			LWristAngles			RShoulderAngles			RElbowAngles			RWristAngles			RThoraxAngles			LThoraxAngles			RHeadAngles			LHeadAngles			LHipPower			LKneePower			LAnklePower			RHipPower			RKneePower			RAnklePower			LWaistPower			RWaistPower			LNeckPower			RNeckPower			LShoulderPower			RShoulderPower			LElbowPower			RElbowPower			LWristPower			RWristPower			F_ForcePlate1			F_ForcePlate2			F_ForcePlate3			LHipForce			RHipForce			LKneeForce			RKneeForce			LAnkleForce			RAnkleForce			LNormalisedGRF			RNormalisedGRF			LGroundReactionForce			RGroundReactionForce			LGRF			RGRF			LWaistForce			RWaistForce			LNeckForce			RNeckForce			LShoulderForce			RShoulderForce			LElbowForce			RElbowForce			LWristForce			RWristForce			Force_FP1			RawForceFP1			Force_FP2			RawForceFP2			Force_FP3			RawForceFP3			LHipMoment			RHipMoment			LKneeMoment			RKneeMoment			LAnkleMoment			RAnkleMoment			LGroundReactionMoment			RGroundReactionMoment			LWaistMoment			RWaistMoment			LNeckMoment			RNeckMoment			LShoulderMoment			RShoulderMoment			LElbowMoment			RElbowMoment			LWristMoment			RWristMoment			RawMomentFP1			RawMomentFP2			RawMomentFP3			
		X1	Y1	Z1	X2	Y2	Z2	X3	Y3	Z3	X4	Y4	Z4	X5	Y5	Z5	X6	Y6	Z6	X7	Y7	Z7	X8	Y8	Z8	X9	Y9	Z9	X10	Y10	Z10	X11	Y11	Z11	X12	Y12	Z12	X13	Y13	Z13	X14	Y14	Z14	X15	Y15	Z15	X16	Y16	Z16	X17	Y17	Z17	X18	Y18	Z18	X19	Y19	Z19	X20	Y20	Z20	X21	Y21	Z21	X22	Y22	Z22	X23	Y23	Z23	X24	Y24	Z24	X25	Y25	Z25	X26	Y26	Z26	X27	Y27	Z27	X28	Y28	Z28	X29	Y29	Z29	X30	Y30	Z30	X31	Y31	Z31	X32	Y32	Z32	X33	Y33	Z33	X34	Y34	Z34	X35	Y35	Z35	X36	Y36	Z36	X37	Y37	Z37	X38	Y38	Z38	X39	Y39	Z39	X40	Y40	Z40	X41	Y41	Z41	X42	Y42	Z42	X43	Y43	Z43	X44	Y44	Z44	X45	Y45	Z45	X46	Y46	Z46	X47	Y47	Z47	X48	Y48	Z48	X49	Y49	Z49	X50	Y50	Z50	X51	Y51	Z51	X52	Y52	Z52	X53	Y53	Z53	X54	Y54	Z54	X55	Y55	Z55	X56	Y56	Z56	X57	Y57	Z57	X58	Y58	Z58	X59	Y59	Z59	X60	Y60	Z60	X61	Y61	Z61	X62	Y62	Z62	X63	Y63	Z63	X64	Y64	Z64	X65	Y65	Z65	X66	Y66	Z66	X67	Y67	Z67	X68	Y68	Z68	X69	Y69	Z69	X70	Y70	Z70	X71	Y71	Z71	X72	Y72	Z72	X73	Y73	Z73	X74	Y74	Z74	X75	Y75	Z75	X76	Y76	Z76	X77	Y77	Z77	X78	Y78	Z78	X79	Y79	Z79	X80	Y80	Z80	X81	Y81	Z81	X82	Y82	Z82	X83	Y83	Z83	X84	Y84	Z84	X85	Y85	Z85	X86	Y86	Z86	X87	Y87	Z87	X88	Y88	Z88	X89	Y89	Z89	X90	Y90	Z90	X91	Y91	Z91	X92	Y92	Z92	X93	Y93	Z93	X94	Y94	Z94	X95	Y95	Z95	X96	Y96	Z96	X97	Y97	Z97	X98	Y98	Z98	X99	Y99	Z99	X100	Y100	Z100	X101	Y101	Z101	X102	Y102	Z102	X103	Y103	Z103	X104	Y104	Z104	X105	Y105	Z105	X106	Y106	Z106	X107	Y107	Z107	X108	Y108	Z108	X109	Y109	Z109	X110	Y110	Z110	X111	Y111	Z111	X112	Y112	Z112	X113	Y113	Z113	X114	Y114	Z114	X115	Y115	Z115	X116	Y116	Z116	X117	Y117	Z117	X118	Y118	Z118	X119	Y119	Z119	X120	Y120	Z120	X121	Y121	Z121	X122	Y122	Z122	X123	Y123	Z123	X124	Y124	Z124	X125	Y125	Z125	X126	Y126	Z126	X127	Y127	Z127	X128	Y128	Z128	X129	Y129	Z129	X130	Y130	Z130	X131	Y131	Z131	X132	Y132	Z132	X133	Y133	Z133	X134	Y134	Z134	X135	Y135	Z135	X136	Y136	Z136	X137	Y137	Z137	X138	Y138	Z138	X139	Y139	Z139	X140	Y140	Z140	X141	Y141	Z141	X142	Y142	Z142	X143	Y143	Z143	X144	Y144	Z144	X145	Y145	Z145	X146	Y146	Z146	X147	Y147	Z147	X148	Y148	Z148	X149	Y149	Z149	X150	Y150	Z150	X151	Y151	Z151	X152	Y152	Z152	X153	Y153	Z153	X154	Y154	Z154	X155	Y155	Z155	X156	Y156	Z156	X157	Y157	Z157	X158	Y158	Z158	X159	Y159	Z159	X160	Y160	Z160	X161	Y161	Z161	X162	Y162	Z162	X163	Y163	Z163	X164	Y164	Z164	X165	Y165	Z165	X166	Y166	Z166	X167	Y167	Z167	X168	Y168	Z168	X169	Y169	Z169	X170	Y170	Z170	X171	Y171	Z171	X172	Y172	Z172	X173	Y173	Z173	X174	Y174	Z174	X175	Y175	Z175	X176	Y176	Z176	X177	Y177	Z177	X178	Y178	Z178	X179	Y179	Z179	

207	1.373333333333334	442.2673645019531	1290.685302734375	317.0408020019531	318.7372741699218	1284.217529296875	274.8576049804688	430.3392333984374	1292.458374023438	430.4867858886719	291.7830505371093	1296.708129882812	439.6007385253906	258.5616760253906	1143.96240234375	366.5078125	228.6115264892578	996.605224609375	378.8491821289062	373.1450195312499	1102.081909179688	364.0111389160156	401.5566101074218	1048.054077148438	366.4938049316406	235.3232421874999	1073.661376953125	461.3400573730469	306.7367248535156	1103.8583984375	227.7276611328125	261.1671142578125	906.52392578125	201.5787048339843	259.2275390625	842.7301025390625	196.5233764648437	261.7878112792969	769.0855712890625	184.7994995117187	293.9873962402344	641.6294555664062	173.8198547363281	357.3917236328125	660.1826782226562	153.3091278076172	350.5663757324219	611.1182861328125	120.040283203125	306.9367675781249	1129.322631835938	502.8306884765625	292.7943420410156	1031.232299804688	563.7497558593749	295.5081176757812	881.375732421875	617.614990234375	322.7974853515624	731.28955078125	622.8255615234375	334.5801391601562	689.3502807617188	623.9808349609375	415.1461486816406	647.68115234375	623.7536010742188	235.6637115478515	796.2235107421875	379.892578125	369.4205017089843	762.1226806640625	270.8046264648438	370.0171203613281	756.3062133789062	496.0816650390625	389.7815551757812	583.479248046875	215.1805572509766	379.9227600097656	460.4685974121094	223.5351257324219	437.2128601074219	492.9197998046875	218.269271850586	321.9729309082031	297.1487731933594	215.4833526611328	202.5752563476562	286.1351013183594	244.2250213623047	316.7410278320312	199.6399841308594	224.1279296875	181.8091735839843	175.4768371582032	299.0416564941406	294.8476257324218	80.12232971191408	269.1004333496094	352.8794860839843	539.5487670898438	502.2660827636719	309.5475463867187	433.6889648437501	479.0080566406251	360.4959106445312	439.6153564453126	478.0301513671876	298.2967224121093	227.9253082275391	471.3368530273438	199.7403106689453	153.9216613769532	452.4148559570312	343.9169006347656	144.6131896972657	445.0459289550782	225.1949310302734	48.71606063842776	377.9064331054688	381.1197204589843	45.40298461914065	404.0185852050782	271.3976135253906	786.2689208984375	384.4020690917969	276.3136901855468	784.9161987304688	384.3541259765625	271.3841247558593	786.4005126953125	379.3047790527344	284.9326171874999	835.4142456054688	385.635009765625	396.1511230468749	704.8688354492188	589.1459350585938	268.5710144042968	65.45932769775392	243.1366119384766	361.9703674316406	26.23978424072268	434.8496093750001	438.5831604003906	422.5506896972656	225.0442504882813	349.4617919921874	384.4798278808594	462.8569946289063	206.845718383789	160.1984252929688	254.0338592529297	264.5229187011718	59.72118759155276	421.8112792968751	444.3878173828124	414.1946716308594	276.2892150878907	339.8908386230468	384.7915954589844	410.9655456542969	227.7928619384765	156.9932250976563	287.235595703125	281.3913879394531	68.33803558349612	387.1773986816407	373.7626953125	570.8744506835938	210.4043121337891	348.5788269042968	535.4993286132812	514.2205200195312	290.5359497070312	300.659912109375	199.6800689697266	272.3085327148437	212.7110137939453	480.6509094238282	337.3140563964843	2.482666419515612e-14	405.4501953125001	-254.2699890136719	-0.2560999989509441	231.3000030517578	-950.1600341796875	1.404999971389795	394.6300048828124	0	0	0	0	0	0	0	0	0	0	0	0	322.8677062988281	700.3565673828125	330.9089660644531	322.5354614257812	697.2054443359375	432.8399047851562	452.1719055175781	414.7192993164062	230.8378601074219	351.6484985351562	388.8616943359376	465.5643615722657	453.2112426757812	410.19970703125	282.8768920898438	346.4053039550781	389.9963989257812	413.0708618164063	-0.05131055787205696	0.940986692905426	0.0195502303540706	337.3140563964843	2.482666419515612e-14	405.4501953125001	326.7735900878906	278.73779296875	390.4835815429688	256.7200012207031	0.07899999618532701	396.4200134277344	-254.2699890136719	-0.2560999989509441	231.3000030517578	-254.2699890136719	-0.2560999989509441	231.3000030517578	-254.2699890136719	-0.2560999989509441	231.3000030517578	-950.1600341796875	1.404999971389795	394.6300048828124	-950.1600341796875	1.404999971389795	394.6300048828124	-254.2699890136719	-0.2560999989509441	231.3000030517578	-15.39803504943848	-0.5389166474342345	1.385667562484739	-15.39803504943848	0.5389166474342345	-1.385667562484743	-43.41058731079102	-8.434417724609375	-2.433347225189214	-5.083801746368408	-7.465613842010498	-3.263020038604736	-38.3289794921875	-2.721822261810303	-8.543428421020513	-18.57512283325195	10.35990428924561	2.513875722885129	-63.84377288818359	-18.39132499694824	4.286146640777581	-13.33856391906738	-34.08672714233398	2.77812671661377	3.185394525527954	19.75678825378418	0.9771248102188103	-6.11322546005249	15.82620429992676	-1.424886584281923	6.361109437179021e-15	-7.951386796473776e-16	-3.97569339823688e-16	-1.590277359294755e-15	-3.97569339823689e-16	-3.876301016958851e-15	-2.272467136383057	0	-2.782969604739062e-16	-10.59084892272949	0	-1.297004923347387e-15	0.3864272832870482	10.00874042510986	1.318006753921508	0.3864272832870485	-10.00874042510986	-1.318006753921508	14.752197265625	-1.068954586982727	-6.166277408599852	14.752197265625	1.068954586982727	6.166277408599855	13.07124614715576	-23.71026611328125	6.828148365020756	-36.52910232543945	-2.576249218295967e-13	-6.063802183152295e-15	-17.69103813171387	101.5148239135742	11.5230484008789	11.82723522186279	26.51272392272949	20.17902183532715	-44.82887268066406	-6.997220186079345e-13	-5.489953543775904e-15	-8.226579666137697	89.90568542480469	11.66964817047118	-0.4377248287200933	2.778093099594117	4.209851264953613	-0.4377248287200923	-2.778093099594117	-4.209851264953613	-0.1122351735830311	-7.200746536254883	2.950812816619873	-0.1122351735830303	7.200746536254883	-2.950812816619873	1.401038418408624e-34	0.01868350431323051	-1.144034687702676e-18	2.896441253637006e-35	0.003862540237605572	-2.36512376928076e-19	6.383725316600867e-35	0.008512997068464756	-5.212707305523082e-19	-6.539469519808834e-34	-0.0872068926692009	5.339882098546183e-18	7.734234679785134e-34	0.1031396463513374	-6.315481888467769e-18	-2.765846778325139e-33	-0.3688386380672455	2.258485287554607e-17	-3.289225430279217e-34	-0.04386336356401443	2.685856389425346e-18	-3.289225430279217e-34	-0.04386336356401443	2.685856389425346e-18	-1.003381755751532e-33	-0.1338056623935699	8.193233807903841e-18	-1.003381755751532e-33	-0.1338056623935699	8.193233807903841e-18	-2.974944760663223e-35	-0.003967228345572948	2.429226747446281e-19	-6.551400086238539e-35	-0.008736599236726761	5.349624145345319e-19	-5.854050474986673e-35	-0.007806650828570127	4.78019497463472e-19	-4.328607693977305e-36	-0.0005772401345893741	3.534576415821321e-20	3.785129544853891e-35	0.005047647748142481	-3.090792828993017e-19	-1.765469082188349e-37	-2.354335811105557e-05	1.441614907594204e-21	326.7735900878906	278.73779296875	390.4835815429688	-254.2699890136719	-0.2560999989509441	231.3000030517578	-950.1600341796875	1.404999971389795	394.6300048828124	-0.05131055787205696	0.940986692905426	0.0195502303540706	0.1348433792591096	-6.204137325286865	-0.6785621047019955	0.1860397905111313	0.2593315839767456	0.02629251405596734	-1.807329297065735	-6.861249446868896	-0.167546287178993	0.1488313525915146	0.0006520433234982196	0.00502493930980565	-7.453431129455566	1.004995465278625	-0.7033914923667918	0	0	0	3.095975399017334	77.97898864746094	4.184439659118648	0	0	0	-0.3037151992321014	7.649738788604736	-0.4104935526847844	0	0	0	-0.3037151992321014	7.649738788604736	-0.4104935526847844	-1.19532299041748	-4.190036296844482	-0.3649984896183013	-1.19532299041748	-4.190036296844482	-0.3649984896183013	-0.1746930480003357	-1.076372265815735	0.06239175051450734	-0.1746930480003357	-1.076372265815735	0.06239175051450734	-0.02743078768253325	0.4137186110019684	-0.07907123118638995	-0.09684967249631882	0.3372196555137634	0.03270401805639263	0.09537315368652344	0.1705783605575562	-0.05385970324277878	0.07141266763210297	0.13613660633564	0.004765619523823261	-0.03626935184001923	0.04043708369135857	-0.0257288794964552	-0.004672437906265261	0.03579176217317581	0.01237775664776563	326.7735900878906	278.73779296875	390.4835815429688	-10.54048728942871	278.73779296875	-14.96660137176516	-254.2699890136719	-0.2560999989509441	231.3000030517578	0	0	0	-950.1600341796875	1.404999971389795	394.6300048828124	0	0	0	9.510251998901369	8.178503990173338	-17.57585906982422	32.1656761169433	12.54967212677005	438.3392333984375	1.427608370780945	3.116531610488892	-2.030828952789307	-186.1045684814453	55.28724670410157	113.0018463134765	8.520211219787598	0.6640130877494813	0.9425210952758799	-411.5412292480469	60.00945663452148	-61.17198944091803	nan	nan	nan	-69.1650695800782	53.53619384765629	618.1390991210938	274.4621887207031	27.09752464294433	-129.3798217773437	274.4621887207031	-27.09752464294433	129.3798217773438	70.95593261718751	19.64223098754882	-122.2863693237305	70.95593261718749	-19.64223098754882	122.2863693237305	5.376823425292966	-6.232242107391356	24.55108070373535	-6.795823574066162	-0.160539835691452	0.6048642396926872	11.51657676696777	-0.4511395394802087	9.861258506774904	5.366959095001221	0.05006926506757738	0.278088033199311	-2.193148612976074	1.301703195306007e-15	0.4798357188701627	0.255018025636673	2.860045587316913e-17	0.0674925968050957	-2517.052246093753	2165.786621093751	22464.611328125	0	0	0	0	0	0	
208	1.38	450.1231384277343	1290.5048828125	316.8937377929688	326.6888732910156	1283.611206054688	274.5091552734375	437.9466247558593	1292.9794921875	430.3192749023438	299.3444213867187	1297.14599609375	439.0863037109375	266.2416687011718	1144.026977539062	366.8835144042969	236.2972717285156	996.6140747070312	379.0320129394531	380.7431030273437	1102.099243164062	364.3433532714844	409.1092834472656	1048.080078125	366.9531860351562	243.0003509521484	1073.634521484375	461.9961853027344	314.3971862792969	1103.780029296875	228.012466430664	266.9230041503906	906.5794677734375	203.4640045166015	264.4021911621094	842.8118896484375	198.9635314941406	265.8300170898438	769.152099609375	187.6239013671875	296.5690307617188	641.1109619140625	177.0608978271484	358.873779296875	659.1641235351562	153.6163330078125	349.8619689941406	610.468017578125	120.7396621704102	314.7000732421874	1129.253784179688	503.2371826171875	301.8899536132812	1031.303100585938	564.6397705078124	307.3427124023437	881.8654174804688	619.7169189453125	335.6981201171874	732.0689086914062	625.354248046875	347.7979125976562	690.2568969726562	626.58447265625	428.6057434082031	649.00244140625	624.7091674804688	243.3631744384765	796.369140625	379.1855163574219	378.1087036132812	762.4611206054688	271.2623901367188	376.6668395996093	756.1448974609375	496.513671875	400.1592102050781	584.6287231445312	215.3292999267578	391.313720703125	461.5350036621094	223.57666015625	448.3936157226562	494.5043640136719	218.8430633544922	337.341552734375	294.6794738769531	215.5037078857422	218.404296875	278.9781799316406	244.0268707275391	335.8742065429688	196.9870910644531	223.8536529541016	201.7970428466797	167.2022399902344	298.61767578125	318.8306579589843	77.15030670166017	267.7989196777344	357.4941101074218	539.3992309570312	502.2100524902344	312.9449768066406	434.0324401855469	479.0039062500001	363.9642333984374	439.3635253906251	478.0385742187501	299.3054504394531	228.0045166015625	471.1746826171876	200.2587890624999	154.7554016113282	451.6189575195312	344.4406433105468	144.3336639404297	445.1467895507813	225.4477844238281	49.12556076049807	377.3869934082031	381.2451477050781	45.38767242431643	404.1011962890626	279.0701904296874	786.3872680664062	384.0181579589844	283.9860534667968	785.0330200195312	384.0116577148438	279.1028137207031	786.5301513671875	378.9212646484375	292.6087951660156	835.525146484375	385.4823913574219	408.4153747558593	705.7959594726562	589.9195556640625	293.1894226074218	61.59120559692384	241.7470397949219	361.9294738769531	26.24239730834963	434.8673706054688	450.3172912597656	424.1447143554688	225.6221313476563	352.2959899902343	384.3551635742188	462.8978271484376	227.5471801757812	153.258773803711	253.466781616211	264.5082092285156	60.0812797546387	421.4050598144532	455.7232666015624	415.8302612304688	276.9174499511719	342.7469482421874	384.74462890625	411.0028686523438	248.5543365478515	150.7665252685547	286.6917419433594	281.6582641601562	68.5700607299805	386.8779907226563	384.1949157714844	571.8289794921875	210.6444396972657	353.4947204589843	535.2774047851562	514.1329956054688	306.2144775390625	296.9315185546875	199.6354064941406	273.2383117675781	213.1322174072266	480.3486328125001	339.5110778808593	2.483960655314393e-14	405.6615600585938	-254.2699890136719	-0.2560999989509441	231.3000030517578	-950.1600341796875	1.404999971389795	394.6300048828124	0	0	0	0	0	0	0	0	0	0	0	0	330.9955749511718	700.5770263671875	330.8018188476562	329.7408447265624	697.1998901367188	432.7183227539062	462.8682250976562	417.1554260253906	231.4115600585938	353.9642028808593	388.5144348144532	465.7668151855469	464.0059814453124	412.5220642089844	283.4385070800782	349.0549316406249	389.6993408203125	413.2421264648438	-0.05256298556923866	0.9736797213554382	0.01182857993990176	339.5110778808593	2.483960655314393e-14	405.6615600585938	330.1797485351562	279.187744140625	390.7344970703126	256.7200012207031	0.07899999618532701	396.4200134277344	-254.2699890136719	-0.2560999989509441	231.3000030517578	-254.2699890136719	-0.2560999989509441	231.3000030517578	-254.2699890136719	-0.2560999989509441	231.3000030517578	-950.1600341796875	1.404999971389795	394.6300048828124	-950.1600341796875	1.404999971389795	394.6300048828124	-254.2699890136719	-0.2560999989509441	231.3000030517578	-15.40375518798828	-0.07313536107540121	1.64587092399597	-15.40375518798828	0.07313536107540121	-1.645870923995973	-40.83902359008789	-8.846503257751465	-2.166442632675175	-5.232346057891846	-7.680667877197266	-3.24368143081665	-38.89959335327148	-2.763607501983643	-8.508230209350591	-17.76226425170898	10.84733963012695	2.382567882537839	-62.35017395019531	-18.81670951843262	4.72508239746093	-12.99651145935059	-34.39631652832031	2.792108297348023	2.690144538879395	19.3894100189209	0.8085339665412894	-6.461284160614014	15.96368026733398	-1.521780967712404	-6.361109437179021e-15	-3.975693398236887e-16	1.590277359294754e-15	2.385416091881692e-15	7.951386796473775e-16	-8.945309550462955e-16	-2.770990133285522	0	-3.393484197197013e-16	-10.92886352539062	0	-1.338399773468789e-15	0.5012313723564147	10.09355735778809	0.9421151280403132	0.5012313723564149	-10.09355735778809	-0.9421151280403129	14.74448776245117	-1.498531937599183	-6.39621067047119	14.74448776245117	1.498531937599183	6.396210670471193	13.5313138961792	-25.24372673034668	6.26355600357056	-36.31497192382812	-1.199069164271871e-12	-4.447301412764138e-15	-17.61554336547852	100.7640686035156	12.69936943054199	10.92031097412109	27.63321876525879	20.83105659484863	-44.81380462646484	2.245471603795623e-12	-7.078385598636394e-15	-8.138022422790529	90.17089080810547	11.72730445861816	-0.4489021897315984	2.734448194503785	4.190276622772217	-0.4489021897315974	-2.734448194503785	-4.190276622772217	-0.1699080318212513	-7.322701454162598	3.319923400878907	-0.1699080318212505	7.322701454162598	-3.319923400878907	9.28844446921999e-35	0.01238657627254725	-7.584590492284768e-19	-1.445021417551045e-34	-0.0192700382322073	1.179949532025989e-18	6.374368420408983e-35	0.008500519208610058	-5.205066819957449e-19	-9.45549963605863e-34	-0.1260935217142105	7.72100138802626e-18	7.491953224241671e-34	0.09990870952606201	-6.117644066401726e-18	-2.842937881495671e-33	-0.3791190981864929	2.321434950448598e-17	-2.829209461281469e-34	-0.03772883489727974	2.310224844625629e-18	-2.829209461281469e-34	-0.03772883489727974	2.310224844625629e-18	-9.60623575577712e-34	-0.1281036585569382	7.844086770540989e-18	-9.60623575577712e-34	-0.1281036585569382	7.844086770540989e-18	-6.04259598385754e-35	-0.008058085106313229	4.934154066351727e-19	-9.72474903804556e-35	-0.01296840887516737	7.940860209503923e-19	-5.626993146287971e-35	-0.007503859233111143	4.594788595540937e-19	-7.177623004559638e-36	-0.0009571696864441037	5.860973963723237e-20	3.141729095710311e-35	0.004189643077552319	-2.565416492247156e-19	-5.906779970861818e-38	-7.876968084019609e-06	4.823251875540236e-22	330.1797485351562	279.187744140625	390.7344970703126	-254.2699890136719	-0.2560999989509441	231.3000030517578	-950.1600341796875	1.404999971389795	394.6300048828124	-0.05256298556923866	0.9736797213554382	0.01182857993990176	0.08002658188343056	-6.217242240905762	-0.6977493762969967	0.2095755189657211	0.2935489416122437	0.03151755034923554	-1.835920691490173	-6.866193771362305	-0.1569218784570692	0.162298247218132	-0.009088489226996899	0.002559973159804961	-7.46663761138916	0.9932721853256226	-0.6990708708763133	0	0	0	2.653278827667236	78.45127105712891	4.018767356872554	0	0	0	-0.260286659002304	7.696069240570068	-0.3942410945892339	0	0	0	-0.260286659002304	7.696069240570068	-0.3942410945892339	-1.127259016036987	-4.228880882263184	-0.3945543766021727	-1.127259016036987	-4.228880882263184	-0.3945543766021727	-0.1154927909374237	-1.100967288017273	0.07739129662513738	-0.1154927909374237	-1.100967288017273	0.07739129662513738	-0.02391777373850345	0.4097233414649963	-0.08561335504055026	-0.09577164053916931	0.3422281742095947	0.03065777942538258	0.09623917192220688	0.1669768840074539	-0.05341332033276557	0.07167220860719681	0.1386992186307907	0.003465279005467892	-0.03212788328528404	0.0391664057970047	-0.02664808556437493	-0.006203560158610346	0.0362023189663887	0.01241861842572689	330.1797485351562	279.187744140625	390.7344970703126	-9.331304550170897	279.187744140625	-14.92705726623537	-254.2699890136719	-0.2560999989509441	231.3000030517578	0	0	0	-950.1600341796875	1.404999971389795	394.6300048828124	0	0	0	5.061317443847659	8.418380737304686	-19.34404182434082	42.11053085327143	12.72315692901614	440.1664428710938	7.201315879821777	2.860091209411621	-0.7452775239944451	-178.3238677978516	53.98888015747071	114.3224563598633	8.933156967163086	0.4559237658977509	0.856159269809724	-430.0408935546875	58.9526023864746	-61.25990676879888	nan	nan	nan	-72.81204223632821	55.48896789550786	642.8689575195312	255.6501617431641	25.29255676269531	-124.3457641601562	255.650161743164	-25.29255676269531	124.3457641601563	23.15981292724611	19.64970397949218	-120.0565643310547	23.15981292724608	-19.64970397949218	120.0565643310547	6.632722854614255	-5.179619312286375	24.6421012878418	-7.60106897354126	-0.4556872844696045	-0.233808010816575	11.61472606658935	-0.3130702972412104	8.320091247558596	5.390712738037109	0.01994683779776101	0.6666205525398261	-1.774798274040222	-8.469659327847537e-16	0.553175091743469	0.05866294354200362	6.519411583304797e-16	0.05791771039366723	-2580.122070312503	2112.230468750001	23114.248046875	0	0	0	0	0	0	
